<?xml version="1.0" encoding="utf-8"?>
<Project name="generique" themeId="0" version="65540" templateID="SimpleProjectTemplate">
  <MediaItems>
    <MediaItem id="1" filePath="C:\Users\Arno\Desktop\video allemand\Re_DÃ©couvrez_Metz__Time_Lapse_[4K].avi" arWidth="1280" arHeight="720" duration="72.176326500000002" songTitle="" songArtist="" songAlbum="" songCopyrightUrl="" songArtistUrl="" songAudioFileUrl="" stabilizationMode="0" mediaItemType="1" />
    <MediaItem id="2" filePath="C:\Users\Arno\Desktop\video allemand\generique.mp3" arWidth="0" arHeight="0" duration="10.135475" songTitle="" songArtist="" songAlbum="" songCopyrightUrl="" songArtistUrl="" songAudioFileUrl="" stabilizationMode="0" mediaItemType="3" />
    <MediaItem id="3" filePath="C:\Users\Arno\Desktop\video allemand\jingle.mp3" arWidth="0" arHeight="0" duration="3.8660625" songTitle="" songArtist="" songAlbum="" songCopyrightUrl="" songArtistUrl="" songAudioFileUrl="" stabilizationMode="0" mediaItemType="3" />
    <MediaItem id="4" filePath="C:\Users\Arno\Desktop\video allemand\background.jpeg" arWidth="1920" arHeight="1080" duration="0" songTitle="" songArtist="" songAlbum="" songCopyrightUrl="" songArtistUrl="" songAudioFileUrl="" stabilizationMode="0" mediaItemType="2" />
  </MediaItems>
  <Extents>
    <TitleClip extentID="17" gapBefore="2.5638886769612643" duration="4">
      <Effects>
        <TextEffect effectTemplateID="TextEffectTemplate" TextScriptId="0">
          <BoundProperties>
            <BoundPropertyBool Name="automatic" Value="false" />
            <BoundPropertyFloatSet Name="color">
              <BoundPropertyFloatElement Value="1" />
              <BoundPropertyFloatElement Value="1" />
              <BoundPropertyFloatElement Value="1" />
            </BoundPropertyFloatSet>
            <BoundPropertyStringSet Name="family">
              <BoundPropertyStringElement Value="Calibri" />
            </BoundPropertyStringSet>
            <BoundPropertyBool Name="horizontal" Value="true" />
            <BoundPropertyStringSet Name="justify">
              <BoundPropertyStringElement Value="MIDDLE" />
            </BoundPropertyStringSet>
            <BoundPropertyBool Name="leftToRight" Value="true" />
            <BoundPropertyFloatSet Name="length">
              <BoundPropertyFloatElement Value="4.0999999046325684" />
              <BoundPropertyFloatElement Value="5.1999998092651367" />
            </BoundPropertyFloatSet>
            <BoundPropertyFloat Name="maxExtent" Value="5" />
            <BoundPropertyFloatSet Name="outlineColor">
              <BoundPropertyFloatElement Value="0.64705884456634521" />
              <BoundPropertyFloatElement Value="0.64705884456634521" />
              <BoundPropertyFloatElement Value="0.64705884456634521" />
            </BoundPropertyFloatSet>
            <BoundPropertyInt Name="outlineSizeIndex" Value="0" />
            <BoundPropertyFloatSet Name="position">
              <BoundPropertyFloatElement Value="-0.079602241516113281" />
              <BoundPropertyFloatElement Value="1.1324503421783447" />
              <BoundPropertyFloatElement Value="0.02500000037252903" />
            </BoundPropertyFloatSet>
            <BoundPropertyFloat Name="size" Value="0.5" />
            <BoundPropertyStringSet Name="string">
              <BoundPropertyStringElement Value="Drogenbeschlagnahme " />
              <BoundPropertyStringElement Value="in Bogota" />
            </BoundPropertyStringSet>
            <BoundPropertyString Name="style" Value="Bold" />
            <BoundPropertyFloat Name="transparency" Value="0" />
          </BoundProperties>
        </TextEffect>
      </Effects>
      <Transitions />
      <BoundProperties>
        <BoundPropertyFloatSet Name="diffuseColor">
          <BoundPropertyFloatElement Value="0.75" />
          <BoundPropertyFloatElement Value="1" />
          <BoundPropertyFloatElement Value="0" />
        </BoundPropertyFloatSet>
        <BoundPropertyFloat Name="transparency" Value="1" />
      </BoundProperties>
    </TitleClip>
    <ImageClip extentID="18" gapBefore="0" mediaItemID="4" duration="7">
      <Effects />
      <Transitions>
        <ShapeEffect effectTemplateID="FlipTransitionTemplate" duration="1.5">
          <BoundProperties />
        </ShapeEffect>
      </Transitions>
      <BoundProperties>
        <BoundPropertyInt Name="rotateStepNinety" Value="0" />
      </BoundProperties>
    </ImageClip>
    <TitleClip extentID="20" gapBefore="2.0769675925925917" duration="3.5">
      <Effects>
        <TextEffect effectTemplateID="TextEffectTemplate" TextScriptId="0">
          <BoundProperties>
            <BoundPropertyBool Name="automatic" Value="false" />
            <BoundPropertyFloatSet Name="color">
              <BoundPropertyFloatElement Value="1" />
              <BoundPropertyFloatElement Value="1" />
              <BoundPropertyFloatElement Value="1" />
            </BoundPropertyFloatSet>
            <BoundPropertyStringSet Name="family">
              <BoundPropertyStringElement Value="Calibri" />
            </BoundPropertyStringSet>
            <BoundPropertyBool Name="horizontal" Value="true" />
            <BoundPropertyStringSet Name="justify">
              <BoundPropertyStringElement Value="MIDDLE" />
            </BoundPropertyStringSet>
            <BoundPropertyBool Name="leftToRight" Value="true" />
            <BoundPropertyFloatSet Name="length">
              <BoundPropertyFloatElement Value="4.0999999046325684" />
              <BoundPropertyFloatElement Value="5.1999998092651367" />
            </BoundPropertyFloatSet>
            <BoundPropertyFloat Name="maxExtent" Value="5" />
            <BoundPropertyFloatSet Name="outlineColor">
              <BoundPropertyFloatElement Value="0.64705884456634521" />
              <BoundPropertyFloatElement Value="0.64705884456634521" />
              <BoundPropertyFloatElement Value="0.64705884456634521" />
            </BoundPropertyFloatSet>
            <BoundPropertyInt Name="outlineSizeIndex" Value="0" />
            <BoundPropertyFloatSet Name="position">
              <BoundPropertyFloatElement Value="-0.079602241516113281" />
              <BoundPropertyFloatElement Value="1.1324503421783447" />
              <BoundPropertyFloatElement Value="0.02500000037252903" />
            </BoundPropertyFloatSet>
            <BoundPropertyFloat Name="size" Value="0.5" />
            <BoundPropertyStringSet Name="string">
              <BoundPropertyStringElement Value="Drogenbeschlagnahme " />
              <BoundPropertyStringElement Value="in Bogota" />
            </BoundPropertyStringSet>
            <BoundPropertyString Name="style" Value="Bold" />
            <BoundPropertyFloat Name="transparency" Value="0" />
          </BoundProperties>
        </TextEffect>
      </Effects>
      <Transitions />
      <BoundProperties>
        <BoundPropertyFloatSet Name="diffuseColor">
          <BoundPropertyFloatElement Value="0.75" />
          <BoundPropertyFloatElement Value="1" />
          <BoundPropertyFloatElement Value="0" />
        </BoundPropertyFloatSet>
        <BoundPropertyFloat Name="transparency" Value="1" />
      </BoundProperties>
    </TitleClip>
    <AudioClip extentID="21" gapBefore="1.9297998221291426" mediaItemID="3" inTime="0" outTime="0" speed="1">
      <Effects />
      <Transitions />
      <BoundProperties>
        <BoundPropertyBool Name="Mute" Value="false" />
        <BoundPropertyFloat Name="Volume" Value="1" />
      </BoundProperties>
    </AudioClip>
    <ImageClip extentID="22" gapBefore="0" mediaItemID="4" duration="8">
      <Effects />
      <Transitions>
        <ShapeEffect effectTemplateID="ContemporarySlideDownNarrow2TransitionTemplate" duration="1.5">
          <BoundProperties />
        </ShapeEffect>
      </Transitions>
      <BoundProperties>
        <BoundPropertyInt Name="rotateStepNinety" Value="0" />
      </BoundProperties>
    </ImageClip>
    <VideoClip extentID="5" gapBefore="0" mediaItemID="1" inTime="48" outTime="50.666666666666664" speed="1" stabilizationMode="0">
      <Effects />
      <Transitions />
      <BoundProperties>
        <BoundPropertyBool Name="Mute" Value="false" />
        <BoundPropertyInt Name="rotateStepNinety" Value="0" />
        <BoundPropertyFloat Name="Volume" Value="0" />
      </BoundProperties>
    </VideoClip>
    <AudioClip extentID="23" gapBefore="2.1148224000930753" mediaItemID="3" inTime="0" outTime="0" speed="1">
      <Effects />
      <Transitions />
      <BoundProperties>
        <BoundPropertyBool Name="Mute" Value="false" />
        <BoundPropertyFloat Name="Volume" Value="1" />
      </BoundProperties>
    </AudioClip>
    <VideoClip extentID="6" gapBefore="0" mediaItemID="1" inTime="1.6000000000000001" outTime="5.6333333333333329" speed="1" stabilizationMode="0">
      <Effects />
      <Transitions />
      <BoundProperties>
        <BoundPropertyBool Name="Mute" Value="false" />
        <BoundPropertyInt Name="rotateStepNinety" Value="0" />
        <BoundPropertyFloat Name="Volume" Value="0" />
      </BoundProperties>
    </VideoClip>
    <TitleClip extentID="24" gapBefore="2.3848379629629619" duration="4">
      <Effects>
        <TextEffect effectTemplateID="TextEffectTemplate" TextScriptId="0">
          <BoundProperties>
            <BoundPropertyBool Name="automatic" Value="false" />
            <BoundPropertyFloatSet Name="color">
              <BoundPropertyFloatElement Value="1" />
              <BoundPropertyFloatElement Value="1" />
              <BoundPropertyFloatElement Value="1" />
            </BoundPropertyFloatSet>
            <BoundPropertyStringSet Name="family">
              <BoundPropertyStringElement Value="Calibri" />
            </BoundPropertyStringSet>
            <BoundPropertyBool Name="horizontal" Value="true" />
            <BoundPropertyStringSet Name="justify">
              <BoundPropertyStringElement Value="MIDDLE" />
            </BoundPropertyStringSet>
            <BoundPropertyBool Name="leftToRight" Value="true" />
            <BoundPropertyFloatSet Name="length">
              <BoundPropertyFloatElement Value="4.0999999046325684" />
              <BoundPropertyFloatElement Value="5.1999998092651367" />
            </BoundPropertyFloatSet>
            <BoundPropertyFloat Name="maxExtent" Value="5" />
            <BoundPropertyFloatSet Name="outlineColor">
              <BoundPropertyFloatElement Value="0.64705884456634521" />
              <BoundPropertyFloatElement Value="0.64705884456634521" />
              <BoundPropertyFloatElement Value="0.64705884456634521" />
            </BoundPropertyFloatSet>
            <BoundPropertyInt Name="outlineSizeIndex" Value="0" />
            <BoundPropertyFloatSet Name="position">
              <BoundPropertyFloatElement Value="-0.079602241516113281" />
              <BoundPropertyFloatElement Value="1.1324503421783447" />
              <BoundPropertyFloatElement Value="0.02500000037252903" />
            </BoundPropertyFloatSet>
            <BoundPropertyFloat Name="size" Value="0.5" />
            <BoundPropertyStringSet Name="string">
              <BoundPropertyStringElement Value="Drogenbeschlagnahme " />
              <BoundPropertyStringElement Value="in Bogota" />
            </BoundPropertyStringSet>
            <BoundPropertyString Name="style" Value="Bold" />
            <BoundPropertyFloat Name="transparency" Value="0" />
          </BoundProperties>
        </TextEffect>
      </Effects>
      <Transitions />
      <BoundProperties>
        <BoundPropertyFloatSet Name="diffuseColor">
          <BoundPropertyFloatElement Value="0.75" />
          <BoundPropertyFloatElement Value="1" />
          <BoundPropertyFloatElement Value="0" />
        </BoundPropertyFloatSet>
        <BoundPropertyFloat Name="transparency" Value="1" />
      </BoundProperties>
    </TitleClip>
    <VideoClip extentID="7" gapBefore="0" mediaItemID="1" inTime="10.233333333333333" outTime="11.699999999999999" speed="1" stabilizationMode="0">
      <Effects />
      <Transitions />
      <BoundProperties>
        <BoundPropertyBool Name="Mute" Value="false" />
        <BoundPropertyInt Name="rotateStepNinety" Value="0" />
        <BoundPropertyFloat Name="Volume" Value="0" />
      </BoundProperties>
    </VideoClip>
    <ImageClip extentID="25" gapBefore="0" mediaItemID="4" duration="7">
      <Effects />
      <Transitions>
        <ShapeEffect effectTemplateID="SlideDownGapTransitionTemplate" duration="1.5">
          <BoundProperties />
        </ShapeEffect>
      </Transitions>
      <BoundProperties>
        <BoundPropertyInt Name="rotateStepNinety" Value="0" />
      </BoundProperties>
    </ImageClip>
    <AudioClip extentID="8" gapBefore="0" mediaItemID="2" inTime="0" outTime="0" speed="1">
      <Effects />
      <Transitions />
      <BoundProperties>
        <BoundPropertyBool Name="Mute" Value="false" />
        <BoundPropertyFloat Name="Volume" Value="1" />
      </BoundProperties>
    </AudioClip>
    <AudioClip extentID="26" gapBefore="2.6439375000000034" mediaItemID="3" inTime="0" outTime="0" speed="1">
      <Effects />
      <Transitions />
      <BoundProperties>
        <BoundPropertyBool Name="Mute" Value="false" />
        <BoundPropertyFloat Name="Volume" Value="1" />
      </BoundProperties>
    </AudioClip>
    <VideoClip extentID="9" gapBefore="0" mediaItemID="1" inTime="21.93333333333333" outTime="23.466666666666661" speed="1" stabilizationMode="0">
      <Effects />
      <Transitions />
      <BoundProperties>
        <BoundPropertyBool Name="Mute" Value="false" />
        <BoundPropertyInt Name="rotateStepNinety" Value="0" />
        <BoundPropertyFloat Name="Volume" Value="0" />
      </BoundProperties>
    </VideoClip>
    <TitleClip extentID="27" gapBefore="2.4453125" duration="4">
      <Effects>
        <TextEffect effectTemplateID="TextEffectTemplate" TextScriptId="0">
          <BoundProperties>
            <BoundPropertyBool Name="automatic" Value="false" />
            <BoundPropertyFloatSet Name="color">
              <BoundPropertyFloatElement Value="1" />
              <BoundPropertyFloatElement Value="1" />
              <BoundPropertyFloatElement Value="1" />
            </BoundPropertyFloatSet>
            <BoundPropertyStringSet Name="family">
              <BoundPropertyStringElement Value="Calibri" />
            </BoundPropertyStringSet>
            <BoundPropertyBool Name="horizontal" Value="true" />
            <BoundPropertyStringSet Name="justify">
              <BoundPropertyStringElement Value="MIDDLE" />
            </BoundPropertyStringSet>
            <BoundPropertyBool Name="leftToRight" Value="true" />
            <BoundPropertyFloatSet Name="length">
              <BoundPropertyFloatElement Value="4.0999999046325684" />
              <BoundPropertyFloatElement Value="5.1999998092651367" />
            </BoundPropertyFloatSet>
            <BoundPropertyFloat Name="maxExtent" Value="5" />
            <BoundPropertyFloatSet Name="outlineColor">
              <BoundPropertyFloatElement Value="0.64705884456634521" />
              <BoundPropertyFloatElement Value="0.64705884456634521" />
              <BoundPropertyFloatElement Value="0.64705884456634521" />
            </BoundPropertyFloatSet>
            <BoundPropertyInt Name="outlineSizeIndex" Value="0" />
            <BoundPropertyFloatSet Name="position">
              <BoundPropertyFloatElement Value="-0.079602241516113281" />
              <BoundPropertyFloatElement Value="1.1324503421783447" />
              <BoundPropertyFloatElement Value="0.02500000037252903" />
            </BoundPropertyFloatSet>
            <BoundPropertyFloat Name="size" Value="0.5" />
            <BoundPropertyStringSet Name="string">
              <BoundPropertyStringElement Value="Drogenbeschlagnahme " />
              <BoundPropertyStringElement Value="in Bogota" />
            </BoundPropertyStringSet>
            <BoundPropertyString Name="style" Value="Bold" />
            <BoundPropertyFloat Name="transparency" Value="0" />
          </BoundProperties>
        </TextEffect>
      </Effects>
      <Transitions />
      <BoundProperties>
        <BoundPropertyFloatSet Name="diffuseColor">
          <BoundPropertyFloatElement Value="0.75" />
          <BoundPropertyFloatElement Value="1" />
          <BoundPropertyFloatElement Value="0" />
        </BoundPropertyFloatSet>
        <BoundPropertyFloat Name="transparency" Value="1" />
      </BoundProperties>
    </TitleClip>
    <VideoClip extentID="11" gapBefore="0" mediaItemID="1" inTime="45.133333333333333" outTime="46.700000000000003" speed="1" stabilizationMode="0">
      <Effects />
      <Transitions />
      <BoundProperties>
        <BoundPropertyBool Name="Mute" Value="false" />
        <BoundPropertyInt Name="rotateStepNinety" Value="0" />
        <BoundPropertyFloat Name="Volume" Value="0" />
      </BoundProperties>
    </VideoClip>
    <TitleClip extentID="12" gapBefore="6.8027779897054028" duration="3">
      <Effects>
        <TextEffect effectTemplateID="TextEffectFadeZoomTemplate" TextScriptId="9">
          <BoundProperties>
            <BoundPropertyBool Name="automatic" Value="false" />
            <BoundPropertyFloatSet Name="color">
              <BoundPropertyFloatElement Value="1" />
              <BoundPropertyFloatElement Value="1" />
              <BoundPropertyFloatElement Value="1" />
            </BoundPropertyFloatSet>
            <BoundPropertyStringSet Name="family">
              <BoundPropertyStringElement Value="Agency FB" />
            </BoundPropertyStringSet>
            <BoundPropertyBool Name="horizontal" Value="true" />
            <BoundPropertyStringSet Name="justify">
              <BoundPropertyStringElement Value="MIDDLE" />
            </BoundPropertyStringSet>
            <BoundPropertyBool Name="leftToRight" Value="true" />
            <BoundPropertyFloatSet Name="length" />
            <BoundPropertyFloat Name="maxExtent" Value="0" />
            <BoundPropertyFloatSet Name="outlineColor">
              <BoundPropertyFloatElement Value="0" />
              <BoundPropertyFloatElement Value="0" />
              <BoundPropertyFloatElement Value="0" />
            </BoundPropertyFloatSet>
            <BoundPropertyInt Name="outlineSizeIndex" Value="1" />
            <BoundPropertyFloatSet Name="position">
              <BoundPropertyFloatElement Value="0" />
              <BoundPropertyFloatElement Value="2.2450330257415771" />
              <BoundPropertyFloatElement Value="0.02500000037252903" />
            </BoundPropertyFloatSet>
            <BoundPropertyFloat Name="size" Value="1.2000000476837158" />
            <BoundPropertyStringSet Name="string">
              <BoundPropertyStringElement Value="Die  " />
              <BoundPropertyStringElement Value="Tagesschau" />
            </BoundPropertyStringSet>
            <BoundPropertyString Name="style" Value="Bold" />
            <BoundPropertyFloat Name="transparency" Value="0" />
          </BoundProperties>
        </TextEffect>
      </Effects>
      <Transitions />
      <BoundProperties>
        <BoundPropertyFloatSet Name="diffuseColor">
          <BoundPropertyFloatElement Value="0.75" />
          <BoundPropertyFloatElement Value="1" />
          <BoundPropertyFloatElement Value="0" />
        </BoundPropertyFloatSet>
        <BoundPropertyFloat Name="transparency" Value="1" />
      </BoundProperties>
    </TitleClip>
    <AudioClip extentID="13" gapBefore="0" mediaItemID="3" inTime="0" outTime="0" speed="1">
      <Effects />
      <Transitions />
      <BoundProperties>
        <BoundPropertyBool Name="Mute" Value="false" />
        <BoundPropertyFloat Name="Volume" Value="1" />
      </BoundProperties>
    </AudioClip>
    <ImageClip extentID="14" gapBefore="0" mediaItemID="4" duration="8">
      <Effects />
      <Transitions>
        <ShaderEffect effectTemplateID="ShatterInTransitionTemplate" duration="1.5">
          <BoundProperties />
        </ShaderEffect>
      </Transitions>
      <BoundProperties>
        <BoundPropertyInt Name="rotateStepNinety" Value="0" />
      </BoundProperties>
    </ImageClip>
    <ExtentSelector extentID="1" gapBefore="0" primaryTrack="true">
      <Effects />
      <Transitions />
      <BoundProperties />
      <ExtentRefs>
        <ExtentRef id="7" />
        <ExtentRef id="9" />
        <ExtentRef id="11" />
        <ExtentRef id="5" />
        <ExtentRef id="6" />
        <ExtentRef id="14" />
        <ExtentRef id="18" />
        <ExtentRef id="22" />
        <ExtentRef id="25" />
      </ExtentRefs>
    </ExtentSelector>
    <ExtentSelector extentID="2" gapBefore="0" primaryTrack="false">
      <Effects />
      <Transitions />
      <BoundProperties />
      <ExtentRefs>
        <ExtentRef id="8" />
        <ExtentRef id="13" />
        <ExtentRef id="21" />
        <ExtentRef id="23" />
        <ExtentRef id="26" />
      </ExtentRefs>
    </ExtentSelector>
    <ExtentSelector extentID="3" gapBefore="0" primaryTrack="false">
      <Effects />
      <Transitions />
      <BoundProperties />
      <ExtentRefs />
    </ExtentSelector>
    <ExtentSelector extentID="4" gapBefore="0" primaryTrack="false">
      <Effects />
      <Transitions />
      <BoundProperties />
      <ExtentRefs>
        <ExtentRef id="12" />
        <ExtentRef id="17" />
        <ExtentRef id="20" />
        <ExtentRef id="24" />
        <ExtentRef id="27" />
      </ExtentRefs>
    </ExtentSelector>
  </Extents>
  <BoundPlaceholders>
    <BoundPlaceholder placeholderID="SingleExtentView" extentID="0" />
    <BoundPlaceholder placeholderID="Main" extentID="1" />
    <BoundPlaceholder placeholderID="SoundTrack" extentID="2" />
    <BoundPlaceholder placeholderID="Text" extentID="4" />
    <BoundPlaceholder placeholderID="Narration" extentID="3" />
  </BoundPlaceholders>
  <BoundProperties>
    <BoundPropertyFloatSet Name="AspectRatio">
      <BoundPropertyFloatElement Value="1.7777776718139648" />
    </BoundPropertyFloatSet>
    <BoundPropertyFloat Name="DuckedNarrationAndSoundTrackMix" Value="1" />
    <BoundPropertyFloat Name="DuckedVideoAndNarrationMix" Value="0" />
    <BoundPropertyFloat Name="DuckedVideoAndSoundTrackMix" Value="0.5" />
    <BoundPropertyFloat Name="SoundTrackMix" Value="0.5" />
  </BoundProperties>
  <ThemeOperationLog themeID="0">
    <MonolithicThemeOperations />
  </ThemeOperationLog>
  <AudioDuckingProperties emphasisPlaceholderID="Narration" />
</Project>